<svg width="48" height="43" viewBox="0 0 48 43" fill="none" xmlns="http://www.w3.org/2000/svg">
<g id="Symbol.svg">
<g id="Group">
<path id="Vector" d="M40.5449 34.7161C21.5194 43 9.71198 36.0691 2.15366 31.8594C1.68596 31.5941 0.89102 31.9214 1.58074 32.6462C4.09879 35.4395 12.351 42.1723 23.1225 42.1723C33.9014 42.1723 40.3139 36.7914 41.1161 35.8527C41.9128 34.922 41.35 34.4086 40.5448 34.7161H40.5449ZM45.8882 32.0163C45.3773 31.4076 42.7815 31.2942 41.1479 31.4778C39.5117 31.6561 37.0559 32.5709 37.2694 33.1202C37.3789 33.326 37.6026 33.2337 38.7266 33.1412C39.8536 33.0384 43.0109 32.6738 43.6688 33.4606C44.3298 34.2529 42.6618 38.0271 42.3572 38.6358C42.0629 39.2445 42.4696 39.4015 43.0225 38.9961C43.5678 38.5908 44.5549 37.5413 45.2173 36.0562C45.8752 34.5629 46.2766 32.4798 45.8882 32.0163Z" fill="#FF9900"/>
<path id="Vector_2" fill-rule="evenodd" clip-rule="evenodd" d="M27.7522 17.8127C27.7522 19.9863 27.8123 21.799 26.6115 23.7292C25.6422 25.2988 24.107 26.2639 22.3916 26.2639C20.05 26.2639 18.6863 24.6317 18.6863 22.2227C18.6863 17.4674 23.3435 16.6043 27.7522 16.6043V17.8127ZM33.9018 31.4116C33.4987 31.7411 32.9154 31.7647 32.4609 31.5449C30.4368 30.007 30.0765 29.2929 28.9616 27.8255C25.6166 30.9486 23.2493 31.8823 18.9094 31.8823C13.7804 31.8823 9.78345 28.9868 9.78345 23.1879C9.78345 18.6603 12.4682 15.5763 16.2847 14.0698C19.5955 12.7356 24.2185 12.5003 27.7522 12.1316V11.4096C27.7522 10.0834 27.8636 8.51402 27.0146 7.36843C26.2683 6.34044 24.8446 5.91668 23.5922 5.91668C21.268 5.91668 19.1923 7.00735 18.6863 9.26727C18.5833 9.76961 18.1803 10.264 17.6314 10.2875L11.7132 9.70692C11.2159 9.6047 10.667 9.23601 10.8042 8.53751C12.1679 1.97757 18.6433 0 24.4412 0C27.4089 0 31.2856 0.72199 33.6272 2.77797C36.5949 5.31246 36.3118 8.69448 36.3118 12.3747V21.0692C36.3118 23.6823 37.4954 24.8278 38.6104 26.2404C39.0048 26.7426 39.0907 27.347 38.5932 27.7234C37.3495 28.6728 35.1366 30.4385 33.9188 31.4273L33.9017 31.4116" fill="black"/>
<path id="Vector_3" d="M40.5449 34.7161C21.5194 43 9.71198 36.0691 2.15366 31.8594C1.68596 31.5941 0.89102 31.9214 1.58074 32.6462C4.09879 35.4395 12.351 42.1723 23.1225 42.1723C33.9014 42.1723 40.3139 36.7914 41.1161 35.8527C41.9128 34.922 41.35 34.4086 40.5448 34.7161H40.5449ZM45.8882 32.0163C45.3773 31.4076 42.7815 31.2942 41.1479 31.4778C39.5117 31.6561 37.0559 32.5709 37.2694 33.1202C37.3789 33.326 37.6026 33.2337 38.7266 33.1412C39.8536 33.0384 43.0109 32.6738 43.6688 33.4606C44.3298 34.2529 42.6618 38.0271 42.3572 38.6358C42.0629 39.2445 42.4696 39.4015 43.0225 38.9961C43.5678 38.5908 44.5549 37.5413 45.2173 36.0562C45.8752 34.5629 46.2766 32.4798 45.8882 32.0163Z" fill="#FF9900"/>
<path id="Vector_4" fill-rule="evenodd" clip-rule="evenodd" d="M27.7522 17.8127C27.7522 19.9863 27.8123 21.799 26.6115 23.7292C25.6422 25.2988 24.107 26.2639 22.3916 26.2639C20.05 26.2639 18.6863 24.6317 18.6863 22.2227C18.6863 17.4674 23.3435 16.6043 27.7522 16.6043V17.8127ZM33.9018 31.4116C33.4987 31.7411 32.9154 31.7647 32.4609 31.5449C30.4368 30.007 30.0765 29.2929 28.9616 27.8255C25.6166 30.9486 23.2493 31.8823 18.9094 31.8823C13.7804 31.8823 9.78345 28.9868 9.78345 23.1879C9.78345 18.6603 12.4682 15.5763 16.2847 14.0698C19.5955 12.7356 24.2185 12.5003 27.7522 12.1316V11.4096C27.7522 10.0834 27.8636 8.51402 27.0146 7.36843C26.2683 6.34044 24.8446 5.91668 23.5922 5.91668C21.268 5.91668 19.1923 7.00735 18.6863 9.26727C18.5833 9.76961 18.1803 10.264 17.6314 10.2875L11.7132 9.70692C11.2159 9.6047 10.667 9.23601 10.8042 8.53751C12.1679 1.97757 18.6433 0 24.4412 0C27.4089 0 31.2856 0.72199 33.6272 2.77797C36.5949 5.31246 36.3118 8.69448 36.3118 12.3747V21.0692C36.3118 23.6823 37.4954 24.8278 38.6104 26.2404C39.0048 26.7426 39.0907 27.347 38.5932 27.7234C37.3495 28.6728 35.1366 30.4385 33.9188 31.4273L33.9017 31.4116" fill="black"/>
</g>
</g>
</svg>
