<svg width="19" height="18" viewBox="0 0 19 18" fill="none" xmlns="http://www.w3.org/2000/svg">
<g id="vuesax/linear/briefcase">
<g id="briefcase">
<path id="Vector" d="M6.91727 16.5H12.9173C15.9323 16.5 16.4723 15.2925 16.6298 13.8225L17.1923 7.8225C17.3948 5.9925 16.8698 4.5 13.6673 4.5H6.16727C2.96477 4.5 2.43977 5.9925 2.64227 7.8225L3.20477 13.8225C3.36227 15.2925 3.90227 16.5 6.91727 16.5Z" stroke="#747474" stroke-width="1.5" stroke-miterlimit="10" stroke-linecap="round" stroke-linejoin="round"/>
<path id="Vector_2" d="M6.91583 4.49916V3.89916C6.91583 2.57166 6.91583 1.49916 9.31583 1.49916H10.5158C12.9158 1.49916 12.9158 2.57166 12.9158 3.89916V4.49916" stroke="#747474" stroke-width="1.5" stroke-miterlimit="10" stroke-linecap="round" stroke-linejoin="round"/>
<path id="Vector_3" d="M11.4175 9.75V10.5C11.4175 10.5075 11.4175 10.5075 11.4175 10.515C11.4175 11.3325 11.41 12 9.91751 12C8.43251 12 8.41751 11.34 8.41751 10.5225V9.75C8.41751 9 8.41751 9 9.16751 9H10.6675C11.4175 9 11.4175 9 11.4175 9.75Z" stroke="#747474" stroke-width="1.5" stroke-miterlimit="10" stroke-linecap="round" stroke-linejoin="round"/>
<path id="Vector_4" d="M17.1533 8.24916C15.4208 9.50916 13.4408 10.2592 11.4158 10.5142" stroke="#747474" stroke-width="1.5" stroke-miterlimit="10" stroke-linecap="round" stroke-linejoin="round"/>
<path id="Vector_5" d="M2.88291 8.45256C4.57041 9.60756 6.47541 10.3051 8.41791 10.5226" stroke="#747474" stroke-width="1.5" stroke-miterlimit="10" stroke-linecap="round" stroke-linejoin="round"/>
</g>
</g>
</svg>
