<svg width="220" height="56" viewBox="0 0 220 56" fill="none" xmlns="http://www.w3.org/2000/svg">
<g filter="url(#filter0_d_2_159)">
<rect x="4.75" y="4.75" width="210.5" height="46.5" rx="23.25" stroke="url(#paint0_linear_2_159)" stroke-width="1.5" shape-rendering="crispEdges"/>
<path d="M52.3963 22.4105C52.5768 21.9228 53.2665 21.9228 53.447 22.4105L54.974 26.5373C55.1442 26.9972 55.5068 27.3598 55.9668 27.53L60.0936 29.0571C60.5812 29.2375 60.5812 29.9273 60.0936 30.1077L55.9668 31.6347C55.5068 31.8049 55.1442 32.1676 54.974 32.6275L53.447 36.7543C53.2665 37.242 52.5768 37.242 52.3963 36.7543L50.8693 32.6275C50.6991 32.1676 50.3365 31.8049 49.8765 31.6347L45.7497 30.1077C45.2621 29.9273 45.2621 29.2375 45.7497 29.0571L49.8765 27.53C50.3365 27.3598 50.6991 26.9972 50.8693 26.5373L52.3963 22.4105Z" fill="url(#paint1_linear_2_159)"/>
<path d="M59.4871 31.1125C59.5773 30.8687 59.9222 30.8687 60.0124 31.1125L60.3128 31.9244C60.3412 32.001 60.4016 32.0615 60.4783 32.0898L61.2901 32.3903C61.534 32.4805 61.534 32.8253 61.2901 32.9156L60.4783 33.216C60.4016 33.2443 60.3412 33.3048 60.3128 33.3814L60.0124 34.1933C59.9222 34.4371 59.5773 34.4371 59.4871 34.1933L59.1867 33.3814C59.1583 33.3048 59.0979 33.2443 59.0212 33.216L58.2094 32.9156C57.9656 32.8253 57.9656 32.4805 58.2094 32.3902L59.0212 32.0898C59.0979 32.0615 59.1583 32.001 59.1867 31.9244L59.4871 31.1125Z" fill="url(#paint2_linear_2_159)"/>
<path d="M47.2529 18.4196C47.4334 17.932 48.1231 17.932 48.3035 18.4196L48.8995 20.0303C48.9563 20.1836 49.0772 20.3045 49.2305 20.3612L50.8412 20.9572C51.3288 21.1377 51.3288 21.8274 50.8412 22.0079L49.2305 22.6039C49.0772 22.6606 48.9563 22.7815 48.8995 22.9348L48.3035 24.5455C48.1231 25.0331 47.4334 25.0331 47.2529 24.5455L46.6569 22.9348C46.6002 22.7815 46.4793 22.6606 46.326 22.6039L44.7153 22.0079C44.2277 21.8274 44.2277 21.1377 44.7153 20.9572L46.326 20.3612C46.4793 20.3045 46.6002 20.1836 46.6569 20.0303L47.2529 18.4196Z" fill="url(#paint3_linear_2_159)"/>
<path d="M57.4904 20.7354L58.0625 22.2817C58.1476 22.5117 58.329 22.693 58.5589 22.7781L60.1052 23.3503L58.5589 23.9224C58.329 24.0075 58.1476 24.1888 58.0625 24.4188L57.4904 25.9651L56.9182 24.4188C56.8331 24.1888 56.6518 24.0075 56.4218 23.9224L54.8755 23.3503L56.4218 22.7781C56.6518 22.693 56.8331 22.5117 56.9182 22.2817L57.4904 20.7354Z" fill="url(#paint4_linear_2_159)"/>
<path d="M47.7825 32.9258C47.9796 32.7563 48.2812 32.9234 48.242 33.1804L48.0343 34.5396C48.022 34.6204 48.0455 34.7026 48.0988 34.7645L48.9955 35.8069C49.165 36.004 48.9979 36.3056 48.7409 36.2664L47.3817 36.0587C47.3009 36.0464 47.2187 36.07 47.1568 36.1233L46.1144 37.0199C45.9173 37.1895 45.6157 37.0223 45.6549 36.7653L45.8626 35.4061C45.8749 35.3253 45.8513 35.2432 45.798 35.1812L44.9014 34.1388C44.7318 33.9417 44.899 33.6401 45.156 33.6793L46.5152 33.887C46.596 33.8993 46.6781 33.8758 46.7401 33.8225L47.7825 32.9258Z" fill="url(#paint5_linear_2_159)"/>
<path d="M82.2393 34L81.167 30.7568H76.5L75.4102 34H73.1162L77.6162 21.3174H80.165L84.6738 34H82.2393ZM78.7676 23.7344L77.0273 28.9639H80.6396L78.917 23.7344H78.7676ZM89.1211 34H86.8535V21.3174H89.1211V34ZM96.4688 30.5547H98.6836C98.8242 31.6885 99.9492 32.418 101.558 32.418C103.052 32.418 104.133 31.6533 104.133 30.5898C104.133 29.6758 103.438 29.1396 101.812 28.7617L100.169 28.3838C97.8662 27.8652 96.7852 26.7227 96.7852 24.833C96.7852 22.5303 98.666 21.001 101.505 21.001C104.168 21.001 106.093 22.5303 106.198 24.71H104.027C103.869 23.5938 102.885 22.8906 101.496 22.8906C100.037 22.8906 99.0703 23.5938 99.0703 24.6748C99.0703 25.5273 99.7119 26.0283 101.285 26.3887L102.744 26.7227C105.319 27.3027 106.4 28.375 106.4 30.3086C106.4 32.7783 104.493 34.3164 101.417 34.3164C98.5078 34.3164 96.583 32.8574 96.4688 30.5547ZM117.29 24.3848V34H115.189V32.4707H115.04C114.574 33.5693 113.484 34.1934 112.061 34.1934C109.942 34.1934 108.633 32.8838 108.633 30.6074V24.3848H110.812V30.0889C110.812 31.5654 111.507 32.2773 112.816 32.2773C114.223 32.2773 115.11 31.4072 115.11 29.9834V24.3848H117.29ZM119.971 34V24.3848H122.071V25.9404H122.221C122.634 24.8418 123.618 24.1914 124.893 24.1914C126.22 24.1914 127.143 24.8594 127.547 25.9404H127.696C128.171 24.8857 129.278 24.1914 130.614 24.1914C132.539 24.1914 133.699 25.3955 133.699 27.3906V34H131.528V27.9443C131.528 26.7051 130.939 26.0898 129.771 26.0898C128.637 26.0898 127.89 26.916 127.89 28.0146V34H125.771V27.7861C125.771 26.7314 125.104 26.0898 124.031 26.0898C122.95 26.0898 122.15 26.9775 122.15 28.1553V34H119.971ZM136.283 34V24.3848H138.384V25.9404H138.533C138.946 24.8418 139.931 24.1914 141.205 24.1914C142.532 24.1914 143.455 24.8594 143.859 25.9404H144.009C144.483 24.8857 145.591 24.1914 146.927 24.1914C148.852 24.1914 150.012 25.3955 150.012 27.3906V34H147.841V27.9443C147.841 26.7051 147.252 26.0898 146.083 26.0898C144.949 26.0898 144.202 26.916 144.202 28.0146V34H142.084V27.7861C142.084 26.7314 141.416 26.0898 140.344 26.0898C139.263 26.0898 138.463 26.9775 138.463 28.1553V34H136.283ZM155.883 32.4443C157.201 32.4443 158.186 31.5918 158.186 30.4756V29.7109L156.015 29.8516C154.793 29.9307 154.222 30.3701 154.222 31.1523C154.222 31.9609 154.916 32.4443 155.883 32.4443ZM155.241 34.1582C153.387 34.1582 152.06 33.0332 152.06 31.2754C152.06 29.5352 153.369 28.5332 155.707 28.3926L158.186 28.2432V27.4346C158.186 26.4941 157.553 25.9668 156.375 25.9668C155.373 25.9668 154.688 26.3184 154.485 26.9688H152.429C152.604 25.2725 154.195 24.1914 156.48 24.1914C158.95 24.1914 160.339 25.3955 160.339 27.4346V34H158.238V32.6816H158.089C157.553 33.6133 156.498 34.1582 155.241 34.1582ZM162.967 34V24.3848H165.067V25.8789H165.217C165.48 24.9297 166.509 24.2266 167.739 24.2266C168.047 24.2266 168.425 24.2617 168.636 24.3232V26.3447C168.469 26.2832 167.871 26.2217 167.528 26.2217C166.131 26.2217 165.146 27.1006 165.146 28.4453V34H162.967ZM171.492 37.498C171.36 37.498 170.771 37.4893 170.631 37.4629V35.6875C170.754 35.7051 171.079 35.7139 171.229 35.7139C172.151 35.7139 172.67 35.3535 172.951 34.4658L173.065 34.0439L169.629 24.3848H172.02L174.27 31.8906H174.419L176.66 24.3848H178.963L175.491 34.3076C174.674 36.6982 173.646 37.498 171.492 37.498Z" fill="url(#paint6_linear_2_159)"/>
</g>
<defs>
<filter id="filter0_d_2_159" x="0" y="0" width="220" height="56" filterUnits="userSpaceOnUse" color-interpolation-filters="sRGB">
<feFlood flood-opacity="0" result="BackgroundImageFix"/>
<feColorMatrix in="SourceAlpha" type="matrix" values="0 0 0 0 0 0 0 0 0 0 0 0 0 0 0 0 0 0 127 0" result="hardAlpha"/>
<feOffset/>
<feGaussianBlur stdDeviation="2"/>
<feComposite in2="hardAlpha" operator="out"/>
<feColorMatrix type="matrix" values="0 0 0 0 0 0 0 0 0 0 0 0 0 0 0 0 0 0 0.25 0"/>
<feBlend mode="normal" in2="BackgroundImageFix" result="effect1_dropShadow_2_159"/>
<feBlend mode="normal" in="SourceGraphic" in2="effect1_dropShadow_2_159" result="shape"/>
</filter>
<linearGradient id="paint0_linear_2_159" x1="18.7907" y1="12.1429" x2="39.5049" y2="91.4857" gradientUnits="userSpaceOnUse">
<stop offset="0.0722182" stop-color="#002DBF"/>
<stop offset="0.460933" stop-color="#4396F7"/>
<stop offset="0.712967" stop-color="#FF9BD2"/>
<stop offset="0.967315" stop-color="#C9FFFC"/>
</linearGradient>
<linearGradient id="paint1_linear_2_159" x1="63.6995" y1="43.902" x2="45.0755" y2="20.2895" gradientUnits="userSpaceOnUse">
<stop offset="0.340919" stop-color="#002DBF"/>
<stop offset="0.479627" stop-color="#4396F7"/>
<stop offset="0.634404" stop-color="#FF9BD2"/>
<stop offset="0.815235" stop-color="#C9FFFC"/>
</linearGradient>
<linearGradient id="paint2_linear_2_159" x1="58.5797" y1="31.6713" x2="62" y2="36.8917" gradientUnits="userSpaceOnUse">
<stop stop-color="#D388FF"/>
<stop offset="0.695" stop-color="#4B94F7"/>
</linearGradient>
<linearGradient id="paint3_linear_2_159" x1="51.1224" y1="25.9651" x2="40.3216" y2="13.7555" gradientUnits="userSpaceOnUse">
<stop offset="0.0189477" stop-color="#89B5FF"/>
<stop offset="0.745" stop-color="#002886"/>
</linearGradient>
<linearGradient id="paint4_linear_2_159" x1="59.4411" y1="25.9651" x2="53.1406" y2="18.8428" gradientUnits="userSpaceOnUse">
<stop stop-color="white"/>
<stop offset="0.315" stop-color="#FF8CB6"/>
</linearGradient>
<linearGradient id="paint5_linear_2_159" x1="47.436" y1="38.5638" x2="45.149" y2="28.2515" gradientUnits="userSpaceOnUse">
<stop stop-color="#FF5FD7"/>
<stop offset="0.545" stop-color="#C86AFF"/>
</linearGradient>
<linearGradient id="paint6_linear_2_159" x1="64.5" y1="19" x2="71.6871" y2="60.3006" gradientUnits="userSpaceOnUse">
<stop offset="0.0722182" stop-color="#002DBF"/>
<stop offset="0.460933" stop-color="#4396F7"/>
<stop offset="0.712967" stop-color="#FF9BD2"/>
<stop offset="0.967315" stop-color="#C9FFFC"/>
</linearGradient>
</defs>
</svg>
