<svg width="20" height="20" viewBox="0 0 20 20" fill="none" xmlns="http://www.w3.org/2000/svg">
<g id="Experience">
<path id="Vector" d="M4.99992 3.33334H3.33325V1.66667H16.6666V3.33334H14.9999V5.00001C14.9999 6.3462 14.3198 7.42891 13.4633 8.3139C12.8776 8.91917 12.1649 9.47667 11.4423 10C12.1649 10.5233 12.8776 11.0808 13.4633 11.6861C14.3198 12.5711 14.9999 13.6538 14.9999 15V16.6667H16.6666V18.3333H3.33325V16.6667H4.99992V15C4.99992 13.6538 5.68005 12.5711 6.5365 11.6861C7.12227 11.0808 7.83494 10.5233 8.5575 10C7.83494 9.47667 7.12227 8.91917 6.5365 8.3139C5.68005 7.42891 4.99992 6.3462 4.99992 5.00001V3.33334ZM6.66659 3.33334V5.00001C6.66659 5.73715 7.02812 6.42527 7.73417 7.15486C8.33992 7.78083 9.12892 8.36651 9.99992 8.98176C10.8709 8.36651 11.6599 7.78083 12.2657 7.15486C12.9718 6.42527 13.3333 5.73715 13.3333 5.00001V3.33334H6.66659ZM9.99992 11.0183C9.12892 11.6335 8.33992 12.2192 7.73417 12.8452C7.02812 13.5748 6.66659 14.2628 6.66659 15V16.6667H13.3333V15C13.3333 14.2628 12.9718 13.5748 12.2657 12.8452C11.6599 12.2192 10.8709 11.6335 9.99992 11.0183Z" fill="#B9B9B9"/>
</g>
</svg>
