<svg width="48" height="47" viewBox="0 0 48 47" fill="none" xmlns="http://www.w3.org/2000/svg">
<path id="Vector" fill-rule="evenodd" clip-rule="evenodd" d="M24.4777 0.391602C11.4721 0.391602 0.958252 10.9829 0.958252 24.0858C0.958252 34.5596 7.6948 43.4255 17.0402 46.5634C18.2086 46.7993 18.6366 46.0536 18.6366 45.4263C18.6366 44.877 18.5981 42.9942 18.5981 41.0324C12.0555 42.4449 10.6931 38.2079 10.6931 38.2079C9.64168 35.4618 8.0838 34.7561 8.0838 34.7561C5.94243 33.3046 8.23978 33.3046 8.23978 33.3046C10.6151 33.4615 11.8615 35.7367 11.8615 35.7367C13.9639 39.3455 17.3517 38.3258 18.7146 37.698C18.9091 36.1681 19.5325 35.1089 20.1945 34.5206C14.9763 33.9713 9.48618 31.9316 9.48618 22.8303C9.48618 20.2412 10.4201 18.1229 11.9 16.4755C11.6665 15.8872 10.8486 13.4545 12.134 10.1987C12.134 10.1987 14.1199 9.5709 18.5976 12.6308C20.5147 12.1122 22.4917 11.8483 24.4777 11.8461C26.4636 11.8461 28.488 12.121 30.3573 12.6308C34.8355 9.5709 36.8214 10.1987 36.8214 10.1987C38.1068 13.4545 37.2884 15.8872 37.0549 16.4755C38.5738 18.1229 39.4692 20.2412 39.4692 22.8303C39.4692 31.9316 33.9791 33.9319 28.7219 34.5206C29.5789 35.2659 30.3183 36.6779 30.3183 38.9141C30.3183 42.0915 30.2798 44.6416 30.2798 45.4258C30.2798 46.0536 30.7083 46.7993 31.8762 46.5639C41.2216 43.4251 47.9581 34.5596 47.9581 24.0858C47.9967 10.9829 37.4443 0.391602 24.4777 0.391602Z" fill="#24292F"/>
</svg>
