<svg width="48" height="47" viewBox="0 0 48 47" fill="none" xmlns="http://www.w3.org/2000/svg">
<g id="Symbol.svg">
<path id="Vector" d="M45.1383 23.9895C45.1383 22.462 45.0012 20.9933 44.7466 19.5833H24.4583V27.916H36.0516C35.5522 30.6087 34.0345 32.8901 31.753 34.4176V39.8226H38.7149C42.7883 36.0724 45.1383 30.5499 45.1383 23.9895Z" fill="#4285F4"/>
<path id="Vector_2" d="M24.4582 45.0416C30.2744 45.0416 35.1507 43.1127 38.7148 39.8227L31.753 34.4177C29.824 35.7102 27.3565 36.4739 24.4582 36.4739C18.8476 36.4739 14.0986 32.6846 12.4046 27.5929H5.20776V33.1741C8.75235 40.2144 16.0373 45.0416 24.4582 45.0416Z" fill="#34A853"/>
<path id="Vector_3" d="M12.4046 27.5929C11.9738 26.3004 11.729 24.9198 11.729 23.5C11.729 22.0802 11.9738 20.6996 12.4046 19.4071V13.8258H5.20776C3.69984 16.8277 2.91517 20.1407 2.91651 23.5C2.91651 26.976 3.7488 30.266 5.20776 33.1741L12.4046 27.5929Z" fill="#FBBC05"/>
<path id="Vector_4" d="M24.4582 10.5261C27.6209 10.5261 30.4605 11.613 32.693 13.7475L38.8715 7.569C35.1409 4.09296 30.2646 1.95837 24.4582 1.95837C16.0373 1.95837 8.75235 6.78567 5.20776 13.8259L12.4046 19.4071C14.0986 14.3155 18.8476 10.5261 24.4582 10.5261Z" fill="#EA4335"/>
</g>
</svg>
