<svg width="32" height="32" viewBox="0 0 32 32" fill="none" xmlns="http://www.w3.org/2000/svg">
<g id="Medal ">
<path id="Vector" d="M16 8.63605C22.6275 8.63605 28 13.8662 28 20.318C28 26.7698 22.6275 32 16 32C9.37258 32 4 26.7698 4 20.318C4 13.8662 9.37258 8.63605 16 8.63605ZM16 13.7469L14.0162 17.6599L9.58038 18.2874L12.7902 21.3333L12.0325 25.6342L16 23.6036L19.9675 25.6342L19.2099 21.3333L22.4197 18.2874L17.9838 17.6599L16 13.7469ZM17.5 1.33334L25 1.3348V5.71555L22.9549 7.37667C21.2958 6.52995 19.4537 5.97672 17.5016 5.78782L17.5 1.33334ZM14.5 1.33334L14.4995 5.7877C12.5476 5.97641 10.7057 6.52944 9.04661 7.37591L7 5.71555V1.3348L14.5 1.33334Z" fill="#C8F5F5"/>
</g>
</svg>
