<svg width="48" height="48" viewBox="20 8 48 47" fill="none" xmlns="http://www.w3.org/2000/svg">
<g filter="url(#filter0_d_266_3863)">
<path d="M26.0964 36.4149C26.0964 38.1861 26.4857 39.5477 26.9939 40.3705C27.6603 41.4482 28.6547 41.9055 29.6678 41.9055C30.975 41.9055 32.17 41.5808 34.475 38.3935C36.3211 35.8386 38.4969 32.2536 39.9605 30.0047L42.4389 26.1953C44.1609 23.5503 46.1531 20.6095 48.4394 18.6173C50.3042 16.9905 52.3168 16.0862 54.3431 16.0862C57.7428 16.0862 60.9828 18.0563 63.4612 21.7518C66.1741 25.7992 67.4915 30.8971 67.4915 36.1582C67.4915 39.286 66.8745 41.5842 65.8257 43.3996C64.8126 45.1556 62.8373 46.9099 59.5141 46.9099V41.9037C62.3596 41.9037 63.0685 39.2894 63.0685 36.2976C63.0685 32.0343 62.0741 27.3019 59.8846 23.9209C58.331 21.5224 56.3166 20.0571 54.1 20.0571C51.7032 20.0571 49.7755 21.864 47.6082 25.087C46.4557 26.7987 45.2726 28.8862 43.945 31.2405L42.4831 33.8311C39.5457 39.0395 38.8012 40.2243 37.3342 42.1825C34.7606 45.6095 32.5627 46.9099 29.6695 46.9099C26.2375 46.9099 24.0668 45.4242 22.7222 43.1838C21.6224 41.3598 21.0835 38.9647 21.0835 36.2347L26.0964 36.4149Z" fill="#0081FB"/>
<path d="M25.0352 22.1078C27.3334 18.5653 30.6498 16.0886 34.4541 16.0886C36.6571 16.0886 38.8466 16.7414 41.1329 18.6078C43.6351 20.6494 46.3005 24.01 49.6271 29.5516L50.8204 31.5404C53.7 36.3374 55.337 38.8039 56.2957 39.9683C57.5281 41.4625 58.3916 41.9079 59.5135 41.9079C62.3591 41.9079 63.068 39.2935 63.068 36.3017L67.4893 36.1623C67.4893 39.2901 66.8723 41.5883 65.8234 43.4038C64.8103 45.1597 62.8351 46.914 59.5118 46.914C57.4465 46.914 55.6157 46.4652 53.5929 44.5563C52.0375 43.091 50.2187 40.4885 48.8197 38.1478L44.6584 31.1953C42.571 27.7055 40.6552 25.1047 39.5452 23.9267C38.3519 22.6603 36.8203 21.1304 34.3725 21.1304C32.3922 21.1304 30.711 22.5192 29.3035 24.6457L25.0352 22.1078Z" fill="url(#paint0_linear_266_3863)"/>
<path d="M34.373 21.1263C32.3927 21.1263 30.7115 22.5151 29.304 24.6416C27.3135 27.6453 26.0964 32.1176 26.0964 36.4149C26.0964 38.1861 26.4857 39.5477 26.9939 40.3705L22.7205 43.1855C21.6224 41.3598 21.0835 38.9647 21.0835 36.2347C21.0835 31.2728 22.4451 26.1001 25.0357 22.1054C27.3339 18.5629 30.6503 16.0862 34.4546 16.0862L34.373 21.1263Z" fill="url(#paint1_linear_266_3863)"/>
</g>
<defs>
<filter id="filter0_d_266_3863" x="0.54183" y="0.502849" width="87.8333" height="71.9112" filterUnits="userSpaceOnUse" color-interpolation-filters="sRGB">
<feFlood flood-opacity="0" result="BackgroundImageFix"/>
<feColorMatrix in="SourceAlpha" type="matrix" values="0 0 0 0 0 0 0 0 0 0 0 0 0 0 0 0 0 0 127 0" result="hardAlpha"/>
<feOffset dy="4.95833"/>
<feGaussianBlur stdDeviation="10.2708"/>
<feComposite in2="hardAlpha" operator="out"/>
<feColorMatrix type="matrix" values="0 0 0 0 0 0 0 0 0 0 0 0 0 0 0 0 0 0 0.1 0"/>
<feBlend mode="normal" in2="BackgroundImageFix" result="effect1_dropShadow_266_3863"/>
<feBlend mode="normal" in="SourceGraphic" in2="effect1_dropShadow_266_3863" result="shape"/>
</filter>
<linearGradient id="paint0_linear_266_3863" x1="31.1428" y1="30.7008" x2="63.0958" y2="32.3147" gradientUnits="userSpaceOnUse">
<stop stop-color="#0064E1"/>
<stop offset="0.4" stop-color="#0064E1"/>
<stop offset="0.83" stop-color="#0073EE"/>
<stop offset="1" stop-color="#0082FB"/>
</linearGradient>
<linearGradient id="paint1_linear_266_3863" x1="27.7687" y1="38.5188" x2="27.7687" y2="26.7382" gradientUnits="userSpaceOnUse">
<stop stop-color="#0082FB"/>
<stop offset="1" stop-color="#0064E0"/>
</linearGradient>
</defs>
</svg>