<svg width="48" height="47" viewBox="0 0 48 47" fill="none" xmlns="http://www.w3.org/2000/svg">
<path id="path14" d="M38.3593 20.8332C30.7843 16.3346 18.2893 15.921 11.058 18.1157C9.89668 18.4682 8.66863 17.8124 8.31687 16.6515C7.96489 15.4894 8.61974 14.2623 9.78191 13.9092C18.083 11.3895 31.8823 11.8761 40.6029 17.0527C41.6474 17.6729 41.99 19.0219 41.371 20.0646C40.7514 21.109 39.4013 21.4533 38.3593 20.8332ZM38.1113 27.4963C37.5798 28.3587 36.4522 28.6292 35.591 28.0997C29.2757 24.2177 19.6457 23.0931 12.1742 25.3611C11.2053 25.6539 10.1819 25.1075 9.88759 24.1405C9.59566 23.1716 10.1422 22.1501 11.1094 21.8554C19.6445 19.2654 30.255 20.52 37.5085 24.9774C38.3697 25.5079 38.6408 26.6359 38.1113 27.4963ZM35.2358 33.8953C34.8134 34.5879 33.9118 34.8049 33.2217 34.3827C27.7033 31.01 20.7573 30.2484 12.5773 32.1167C11.789 32.2975 11.0034 31.8035 10.8236 31.0153C10.643 30.2273 11.1351 29.4416 11.9251 29.2617C20.8768 27.2153 28.5556 28.096 34.7497 31.881C35.4403 32.3028 35.6578 33.205 35.2358 33.8953ZM24.4584 2.52757e-07C11.4798 2.52757e-07 0.958252 10.5213 0.958252 23.4997C0.958252 36.4796 11.4798 47 24.4584 47C37.4372 47 47.9583 36.4796 47.9583 23.4997C47.9583 10.5213 37.4372 2.52757e-07 24.4584 2.52757e-07Z" fill="#1ED760"/>
</svg>
