<svg className="toogleIcon" width="26" height="30" viewBox="0 0 26 30" fill="none" xmlns="http://www.w3.org/2000/svg">
              <path d="M13.0233 7.54762C13.2639 6.89742 14.1835 6.89742 14.4241 7.54762L16.4602 13.05C16.6871 13.6633 17.1706 14.1468 17.7839 14.3737L23.2863 16.4098C23.9365 16.6504 23.9365 17.57 23.2863 17.8106L17.7839 19.8467C17.1706 20.0736 16.6871 20.5571 16.4602 21.1704L14.4241 26.6727C14.1835 27.3229 13.2639 27.3229 13.0233 26.6727L10.9872 21.1704C10.7603 20.5571 10.2768 20.0736 9.66352 19.8467L4.16114 17.8106C3.51094 17.57 3.51095 16.6504 4.16115 16.4098L9.66352 14.3737C10.2768 14.1468 10.7603 13.6633 10.9872 13.05L13.0233 7.54762Z" fill="white" />
              <path d="M22.4776 19.15C22.5979 18.8249 23.0577 18.8249 23.178 19.15L23.5786 20.2325C23.6164 20.3347 23.697 20.4153 23.7992 20.4531L24.8817 20.8537C25.2068 20.974 25.2068 21.4338 24.8817 21.5541L23.7992 21.9546C23.697 21.9925 23.6164 22.073 23.5786 22.1752L23.178 23.2577C23.0577 23.5828 22.5979 23.5828 22.4776 23.2577L22.0771 22.1752C22.0392 22.073 21.9587 21.9925 21.8564 21.9546L20.774 21.5541C20.4489 21.4338 20.4489 20.974 20.774 20.8537L21.8564 20.4531C21.9587 20.4153 22.0392 20.3347 22.0771 20.2325L22.4776 19.15Z" fill="white" />
              <path d="M6.1654 2.22633C6.40599 1.57613 7.32563 1.57613 7.56622 2.22633L8.36089 4.3739C8.43654 4.57832 8.59771 4.7395 8.80213 4.81514L10.9497 5.60981C11.5999 5.85041 11.5999 6.77004 10.9497 7.01064L8.80213 7.80531C8.59771 7.88095 8.43654 8.04213 8.36089 8.24655L7.56622 10.3941C7.32563 11.0443 6.40599 11.0443 6.1654 10.3941L5.37072 8.24655C5.29508 8.04213 5.13391 7.88095 4.92949 7.80531L2.78192 7.01064C2.13172 6.77004 2.13172 5.85041 2.78192 5.60981L4.92949 4.81514C5.13391 4.7395 5.29508 4.57832 5.37072 4.3739L6.1654 2.22633Z" fill="white" />
              <path d="M19.8153 5.31396L20.5782 7.37565C20.6916 7.68228 20.9334 7.92404 21.24 8.0375L23.3017 8.80039L21.24 9.56328C20.9334 9.67674 20.6916 9.9185 20.5782 10.2251L19.8153 12.2868L19.0524 10.2251C18.9389 9.9185 18.6972 9.67674 18.3905 9.56328L16.3289 8.80039L18.3905 8.0375C18.6972 7.92404 18.9389 7.68228 19.0524 7.37564L19.8153 5.31396Z" fill="white" />
              <path d="M6.87154 21.5679C7.13433 21.3418 7.53653 21.5647 7.48418 21.9074L7.20733 23.7196C7.19087 23.8273 7.2223 23.9369 7.29337 24.0195L8.48888 25.4093C8.71494 25.6721 8.49207 26.0743 8.1494 26.022L6.33716 25.7451C6.22943 25.7287 6.11988 25.7601 6.03726 25.8312L4.64744 27.0267C4.38464 27.2527 3.98245 27.0299 4.0348 26.6872L4.31165 24.875C4.32811 24.7672 4.29668 24.6577 4.22561 24.575L3.03009 23.1852C2.80404 22.9224 3.02691 22.5202 3.36958 22.5726L5.18181 22.8494C5.28955 22.8659 5.3991 22.8345 5.48172 22.7634L6.87154 21.5679Z" fill="white" />
            </svg>